<svg width="172" height="181" viewBox="0 0 172 181" fill="none" xmlns="http://www.w3.org/2000/svg">
<path d="M78.5917 69.2907C78.2966 69.2907 77.9645 68.6984 77.5956 67.847C76.5627 65.2187 74.9765 62.1092 73.2059 59.703C67.4882 52.1512 61.7337 44.3403 54.1347 38.7875C30.9319 24.2393 10.8646 35.8631 17.8365 64.4413C19.5703 76.8795 28.5341 89.5398 39.785 94.4262C41.0392 94.9075 43.9166 95.907 41.3344 96.5363C29.9359 98.6834 18.3898 102.94 7.80287 107.901C1.45807 111.492 0.941562 119.488 0.240682 126.262C-0.829081 134.924 1.49495 142.735 10.6802 144.179C24.7715 146.659 40.1171 142.476 52.4009 135.887C54.024 135.072 56.3849 133.073 58.1924 133.888C59.2991 134.517 59.0777 136.516 58.8933 137.775C57.9711 142.957 56.8644 148.288 56.0897 153.323C55.8684 160.763 53.9502 175.608 62.5083 178.643C75.7881 181.123 83.8667 157.209 86.3383 146.77C86.7071 145.66 86.8916 142.735 88.1827 142.661C88.6622 142.772 89.0311 143.661 89.2893 144.253C91.5395 151.064 93.3101 158.283 96.0767 165.02C98.4745 170.388 101.647 175.571 106.332 179.087C113.119 183.159 123.153 180.272 128.428 174.756C137.871 166.057 132.449 152.027 128.797 141.551C128.096 138.996 124.628 133.148 124.923 131.593C125.071 131.297 125.587 131.371 126.325 131.704C131.084 134.221 135.769 137.146 140.638 139.663C147.388 142.587 153.881 146.548 160.926 148.51C167.935 150.287 173.1 143.698 171.809 136.812C170.481 126.262 164.32 117.156 157.348 109.863C153.696 104.902 149.122 100.979 144.327 97.3137C142.482 95.6478 140.011 94.4262 137.724 93.908C133.85 92.7974 138.277 91.2427 141.228 89.5768C142.298 89.0215 143.368 88.3922 144.401 87.7629C154.508 82.0621 168.71 76.1762 161.185 61.6649C156.426 54.7425 147.02 54.1872 139.789 56.1492C133.961 57.2968 127.801 58.7775 122.895 62.5904C121.677 63.4048 119.39 64.7004 118.542 63.1457C117.952 62.2942 117.988 60.4433 118.062 59.1847C118.652 50.4854 119.796 42.0452 119.021 33.3458C117.804 24.4984 115.111 15.9842 111.644 7.87716C106.184 -5.33842 88.2932 -0.00776942 82.428 9.83913C78.8867 15.7621 78.0752 23.0547 77.6695 29.9401C77.4481 39.3428 76.7841 49.1157 78.0014 58.4813C78.2597 61.776 80.3623 66.4033 78.7761 69.3648" fill="black"/>
</svg>
