<svg width="165" height="158" viewBox="0 0 165 158" fill="none" xmlns="http://www.w3.org/2000/svg">
<g filter="url(#filter0_n_498_404)">
<path d="M120.711 8.80214C121.074 9.49528 120.613 10.7495 120.415 11.7727C118.932 17.5158 117.021 23.589 116.955 29.5301C116.559 36.7915 122.82 40.2902 129.345 38.7059C136.693 37.3526 143.019 32.6987 149.511 29.3981C153.399 27.4507 146.908 32.8307 146.38 33.5899C138.604 41.4124 130.037 59.1368 143.019 66.2992C149.379 69.9629 157.287 69.9299 164.306 71.1841C164.833 71.3161 165.294 71.6132 164.767 71.9762C158.078 75.4089 138.406 81.5151 141.899 92.6382C144.568 98.6784 151.85 101.451 156.793 105.412C161.604 108.877 162.23 110.759 156.365 110.33C152.378 110.066 147.83 109.868 143.777 110.825C128.686 113.597 128.455 129.968 133.365 141.719C133.859 143.369 135.506 146.835 134.749 147.858C132.508 148.056 129.674 145.382 127.4 144.392C116.428 138.154 101.6 130.628 92.0437 143.039C89.2428 146.472 87.0351 150.96 85.1569 154.789C84.1024 156.835 83.081 158.123 82.0595 157.991C81.038 157.925 80.0495 156.439 79.028 154.294C77.2486 150.531 75.634 146.207 73.1627 142.808C64.6612 130.265 49.5366 136.471 39.4535 143.864C36.8174 145.481 33.7199 149.211 31.2486 149.541C30.4578 148.914 31.2156 146.868 31.5451 145.646C34.0824 138.187 37.5423 130.628 37.6412 122.806C38.6626 104.454 18.9578 106.402 6.33744 108.514C6.04087 108.448 6.27154 108.25 6.96352 107.854C7.35893 107.623 7.95204 107.293 8.64401 106.93C14.1139 104.19 19.7157 100.956 24.0982 96.632C30.8861 90.2947 27.7228 83.3964 19.6827 80.6569C14.4435 78.6435 8.87466 76.8942 3.53656 75.2439C1.9549 74.7158 -2.39463 73.6266 1.72428 73.1315C13.422 72.1743 34.7414 67.4874 31.1497 51.8754C28.8761 45.7362 23.2744 40.9503 20.0781 35.3062C16.2228 29.2331 18.5623 29.8932 22.6483 32.1706C27.7887 34.9431 33.654 37.9797 39.75 38.4748C48.581 39.465 52.9964 30.7844 51.7443 22.9949C51.6125 19.6612 49.3389 13.8521 49.3389 11.3436C49.5366 10.8485 50.4263 11.7067 51.9091 13.324C55.7644 17.7469 61.7945 23.0279 68.22 21.1465C73.2286 19.7932 76.8532 14.3802 78.9292 9.16521C80.5438 5.27047 80.9062 1.24369 82.7185 0.0554671C83.6741 -0.24159 84.2672 0.715594 84.8274 1.47474C88.1225 7.0198 90.4291 13.8521 94.515 18.8361C101.665 27.7808 111.584 19.9913 117.021 12.4328C118.108 11.2446 119.36 9.16521 120.645 8.76914" fill="black"/>
</g>
<defs>
<filter id="filter0_n_498_404" x="0" y="0" width="165" height="158" filterUnits="userSpaceOnUse" color-interpolation-filters="sRGB">
<feFlood flood-opacity="0" result="BackgroundImageFix"/>
<feBlend mode="normal" in="SourceGraphic" in2="BackgroundImageFix" result="shape"/>
<feTurbulence type="fractalNoise" baseFrequency="2 2" stitchTiles="stitch" numOctaves="3" result="noise" seed="803" />
<feComponentTransfer in="noise" result="coloredNoise1">
<feFuncR type="linear" slope="2" intercept="-0.5" />
<feFuncG type="linear" slope="2" intercept="-0.5" />
<feFuncB type="linear" slope="2" intercept="-0.5" />
<feFuncA type="discrete" tableValues="1 1 1 1 1 1 1 1 1 1 1 1 1 1 1 1 1 1 1 1 1 1 1 1 1 1 1 1 1 1 1 1 1 1 1 1 1 1 1 1 1 1 1 1 1 1 1 1 1 1 1 0 0 0 0 0 0 0 0 0 0 0 0 0 0 0 0 0 0 0 0 0 0 0 0 0 0 0 0 0 0 0 0 0 0 0 0 0 0 0 0 0 0 0 0 0 0 0 0 0 "/>
</feComponentTransfer>
<feComposite operator="in" in2="shape" in="coloredNoise1" result="noise1Clipped" />
<feComponentTransfer in="noise1Clipped" result="color1">
<feFuncA type="table" tableValues="0 0.15" />
</feComponentTransfer>
<feMerge result="effect1_noise_498_404">
<feMergeNode in="shape" />
<feMergeNode in="color1" />
</feMerge>
</filter>
</defs>
</svg>
