<svg width="157" height="158" viewBox="0 0 157 158" fill="none" xmlns="http://www.w3.org/2000/svg">
<g filter="url(#filter0_n_498_405)">
<path d="M153.056 110.324C159.2 118.459 157.59 134.987 144.871 135.051C137.029 135.188 129.112 134.55 121.415 132.585C113.988 130.304 107.419 126.531 100.45 123.127C99.4379 122.644 97.9256 121.992 97.0262 122.192C95.461 122.37 95.761 124.689 96.0236 125.965C97.5188 131.286 96.672 136.858 95.6621 142.044C94.8529 148.659 91.2397 156.222 83.9406 157.82C69.462 159.151 69.3773 145.477 68.0716 135.238C67.8997 134.176 67.7405 133.083 67.6419 132.015C67.2596 129.026 67.4635 124.858 65.2495 127.675C64.0553 129.386 62.2196 131.013 60.2285 131.973C55.6007 134.694 50.8332 137.145 45.5217 138.49C37.1751 141.787 27.6062 143.807 18.4693 141.362C12.364 140.115 8.66803 133.65 12.483 128.472C16.4628 123.326 21.9042 119.307 26.5779 114.727C30.2851 111.56 34.2666 108.682 37.9367 105.606C38.4584 105.11 38.6926 104.709 38.4984 104.488C37.3166 103.724 31.3341 104.618 28.9948 104.338C19.1393 103.832 5.76208 103.593 1.7635 92.8951C-1.01062 86.6991 -0.0233724 77.4647 5.60797 73.2392C10.0767 70.5596 15.4107 69.6845 20.637 69.5099C27.1154 69.4908 33.6562 70.4541 40.0224 70.8854C40.597 70.8714 41.4527 70.8656 41.7051 70.5078C42.0772 69.4193 39.7296 68.2862 38.9385 67.6097C31.1677 62.0716 14.1779 47.3944 20.6755 37.2864C26.0472 31.2545 37.6328 37.8139 43.6883 40.4924C47.5759 42.8194 51.5963 45.5199 55.5564 48.0183C56.5313 48.5924 58.1035 49.445 58.9932 48.745C60.2705 47.5292 59.4158 44.9128 59.2893 43.3025C57.982 30.9725 59.6845 16.9276 66.4549 6.15111C70.7256 -0.931171 77.9397 -0.22604 84.7168 3.56109C90.0624 6.41101 96.476 9.51926 97.3059 15.9505C97.8408 26.3361 97.475 37.2764 95.42 47.3868C95.0722 49.7252 96.8608 47.6903 97.678 46.8185C105.478 39.1893 118.914 36.0523 129.742 38.7965C155.624 42.6401 158.468 63.0713 138.699 77.3055C131.576 81.7028 123.21 83.8232 115.071 86.0001C112.495 86.6515 109.401 86.9148 106.889 86.884C106.116 86.9011 105.541 86.9676 105.39 87.1761L105.243 87.3473C107.151 89.6473 111.668 89.4681 114.469 90.3607C122.593 92.4997 130.421 96.3245 138.093 99.6611C143.629 102.305 149.364 105.42 153.056 110.324ZM92.3526 89.0392C95.3729 81.6225 92.6381 73.4993 86.2443 70.8957C79.8506 68.2921 72.219 72.1939 69.1988 79.6106C66.1787 87.0273 68.9135 95.1505 75.3071 97.7542C81.7008 100.358 89.3324 96.4559 92.3526 89.0392Z" fill="black"/>
</g>
<defs>
<filter id="filter0_n_498_405" x="0.27063" y="0.749023" width="156.251" height="157.161" filterUnits="userSpaceOnUse" color-interpolation-filters="sRGB">
<feFlood flood-opacity="0" result="BackgroundImageFix"/>
<feBlend mode="normal" in="SourceGraphic" in2="BackgroundImageFix" result="shape"/>
<feTurbulence type="fractalNoise" baseFrequency="2 2" stitchTiles="stitch" numOctaves="3" result="noise" seed="803" />
<feComponentTransfer in="noise" result="coloredNoise1">
<feFuncR type="linear" slope="2" intercept="-0.5" />
<feFuncG type="linear" slope="2" intercept="-0.5" />
<feFuncB type="linear" slope="2" intercept="-0.5" />
<feFuncA type="discrete" tableValues="1 1 1 1 1 1 1 1 1 1 1 1 1 1 1 1 1 1 1 1 1 1 1 1 1 1 1 1 1 1 1 1 1 1 1 1 1 1 1 1 1 1 1 1 1 1 1 1 1 1 1 0 0 0 0 0 0 0 0 0 0 0 0 0 0 0 0 0 0 0 0 0 0 0 0 0 0 0 0 0 0 0 0 0 0 0 0 0 0 0 0 0 0 0 0 0 0 0 0 0 "/>
</feComponentTransfer>
<feComposite operator="in" in2="shape" in="coloredNoise1" result="noise1Clipped" />
<feComponentTransfer in="noise1Clipped" result="color1">
<feFuncA type="table" tableValues="0 0.15" />
</feComponentTransfer>
<feMerge result="effect1_noise_498_405">
<feMergeNode in="shape" />
<feMergeNode in="color1" />
</feMerge>
</filter>
</defs>
</svg>
