<svg width="141" height="130" viewBox="0 0 141 130" fill="none" xmlns="http://www.w3.org/2000/svg">
<path d="M123.392 71.5269C136.133 62.3554 144.573 48.5981 139.509 31.5325C135.935 19.4785 125.907 11.4862 113.298 10.438C105.719 9.84841 98.802 12.1085 92.514 15.7444C85.8619 5.81949 74.4441 -0.666093 61.3054 0.0545268C41.1174 1.13546 27.9786 18.2666 25.6951 37.0354C25.4965 38.837 25.4303 40.6385 25.3641 42.4073C24.0734 42.8004 22.7827 43.1607 21.492 43.6848C17.4213 45.4208 13.9794 47.8447 11.0009 50.7272C6.9302 53.9373 3.88546 58.1627 2.72713 63.2071C1.23785 67.0394 0.278098 71.1011 0.0133378 75.3266C-0.119042 77.8815 0.774514 80.4037 2.32998 82.369C2.66093 84.7929 3.75307 87.1841 5.63949 88.9201C11.1333 93.9317 17.6861 96.9452 24.3382 98.1571C23.2461 101.924 23.1137 105.92 24.272 110.08C26.7872 119.121 34.4322 126.229 43.5002 128.587H43.6988C48.1666 130.192 52.8992 130.257 57.2347 128.849C64.3501 127.244 70.4396 122.888 75.3707 117.188C77.191 117.778 78.945 118.203 80.7983 118.597C83.8431 120.824 87.2188 122.822 90.5614 124.493C103.502 130.978 119.95 133.402 131.103 122.363C131.831 121.905 132.526 121.545 133.254 121.02C142.19 114.371 141.991 103.791 138.483 94.2265C135.174 85.2515 129.944 77.5539 123.325 71.2977L123.392 71.4942V71.5269Z" fill="black"/>
</svg>
