<svg width="140" height="96" viewBox="0 0 140 96" fill="none" xmlns="http://www.w3.org/2000/svg">
<path d="M79.4512 14.2979L79.7207 14.6807L80.1211 14.4365L96.3564 4.50293L97.5801 19.2256L97.6289 19.8066L98.1953 19.6709L118.561 14.7969L111.577 28.5195L111.223 29.2148L112.003 29.2461L133.271 30.0762L119.265 40.8428L118.517 41.417L119.412 41.7139L138.408 48L119.412 54.2861L118.517 54.583L119.265 55.1572L133.271 65.9229L112.003 66.7539L111.223 66.7852L111.577 67.4805L118.561 81.2021L98.1953 76.3291L97.6289 76.1934L97.5801 76.7744L96.3564 91.4961L80.1211 81.5635L79.7207 81.3193L79.4512 81.7021L70 95.1299L60.5488 81.7021L60.2793 81.3193L59.8789 81.5635L43.6426 91.4961L42.4199 76.7744L42.3711 76.1934L41.8047 76.3291L21.4385 81.2021L28.4229 67.4805L28.7773 66.7852L27.9971 66.7539L6.72852 65.9229L20.7354 55.1572L21.4834 54.583L20.5879 54.2861L1.59082 48L20.5879 41.7139L21.4834 41.417L20.7354 40.8428L6.72852 30.0762L27.9971 29.2461L28.7773 29.2148L28.4229 28.5195L21.4385 14.7969L41.8047 19.6709L42.3711 19.8066L42.4199 19.2256L43.6426 4.50293L59.8789 14.4365L60.2793 14.6807L60.5488 14.2979L70 0.869141L79.4512 14.2979Z" fill="white" stroke="#3D4020"/>
</svg>
